<svg width="128" height="128" fill="none" xmlns="http://www.w3.org/2000/svg"><path d="M14.662 65.828c3.416-.821 6.858 2.858 6.858 2.858l3.513 33.294s-4.61-2.106-7.026-4.204c-9.4-8.164-11.04-30.098-3.345-31.948Z" fill="#D89E6D"/><path fill-rule="evenodd" clip-rule="evenodd" d="m21.98 68.356-.49.459.49-.458.155.163 3.686 34.511-1.073-.484.279-.61-.279.61-.001-.001-.014-.006-.041-.019-.155-.072a49.241 49.241 0 0 1-2.455-1.231c-1.473-.789-3.296-1.862-4.571-2.956-4.916-4.218-7.735-11.9-8.371-18.692-.32-3.408-.097-6.659.726-9.203.819-2.529 2.288-4.507 4.56-5.047 1.989-.472 3.914.357 5.26 1.2a13.286 13.286 0 0 1 2.245 1.786l.034.035.01.01.003.004.002.001Zm2.25 32.459L20.843 69.12a11.957 11.957 0 0 0-1.878-1.468c-1.248-.782-2.776-1.375-4.227-1.03-1.604.38-2.834 1.82-3.59 4.154-.75 2.319-.976 5.376-.667 8.67.619 6.609 3.359 13.899 7.91 17.803 1.158.993 2.872 2.01 4.33 2.791.565.303 1.084.567 1.507.775Z" fill="#000"/><path fill-rule="evenodd" clip-rule="evenodd" d="m22.142 77.433-.557.374-.557.375-.001-.002-.007-.009-.028-.04a17.499 17.499 0 0 0-.554-.73 18.08 18.08 0 0 0-1.547-1.704c-.635-.61-1.346-1.184-2.072-1.576-.73-.394-1.42-.574-2.04-.487-.795.112-1.327.651-1.667 1.625-.346.992-.438 2.311-.386 3.68.05 1.357.24 2.702.42 3.713a31.853 31.853 0 0 0 .333 1.636l.006.02v.006l-.653.16-.654.158v-.002l-.002-.007-.006-.026a33.02 33.02 0 0 1-.35-1.715c-.186-1.045-.386-2.454-.44-3.893-.054-1.425.032-2.94.46-4.165.433-1.243 1.27-2.301 2.749-2.51 1.014-.142 2.004.167 2.874.636.874.471 1.684 1.134 2.366 1.79a19.42 19.42 0 0 1 2.3 2.674l.009.013.002.004.002.002ZM20.946 79.113l.23.626.23.627h-.001l-.008.003-.038.014a9.086 9.086 0 0 0-.722.327 8.675 8.675 0 0 0-1.63 1.06c-1.118.937-1.94 2.219-1.388 3.933.591 1.836 2.124 3.017 3.605 3.753a12.101 12.101 0 0 0 2.548.916 6.764 6.764 0 0 0 .2.043l.009.002-.12.656-.12.656h-.003l-.005-.001-.015-.003a5.343 5.343 0 0 1-.25-.054 13.446 13.446 0 0 1-2.845-1.023C19 89.843 17.091 88.44 16.34 86.11c-.79-2.452.485-4.254 1.8-5.358.66-.554 1.359-.96 1.886-1.228a10.36 10.36 0 0 1 .897-.402l.015-.005.005-.002h.002v-.001Z" fill="#000"/><path d="M112.677 65.828c-3.417-.821-6.858 2.858-6.858 2.858l-3.513 33.294s4.609-2.106 7.025-4.204c9.4-8.164 11.04-30.098 3.346-31.948Z" fill="#D89E6D"/><path fill-rule="evenodd" clip-rule="evenodd" d="m105.359 68.356.491.459-.491-.458-.156.163-3.686 34.511 1.074-.484-.279-.61.279.61.001-.001.014-.006.041-.019.155-.072a50.892 50.892 0 0 0 2.455-1.231c1.472-.789 3.296-1.862 4.571-2.956 4.916-4.218 7.735-11.9 8.371-18.692.319-3.408.097-6.659-.727-9.203-.818-2.529-2.287-4.507-4.558-5.047-1.99-.472-3.916.357-5.261 1.2a13.32 13.32 0 0 0-2.245 1.786l-.035.035-.01.01-.003.004-.001.001Zm-2.25 32.459 3.386-31.695a11.943 11.943 0 0 1 1.878-1.468c1.248-.782 2.776-1.375 4.227-1.03 1.604.38 2.834 1.82 3.589 4.154.751 2.319.977 5.376.668 8.67-.619 6.609-3.359 13.899-7.91 17.803-1.158.993-2.873 2.01-4.33 2.791a48.65 48.65 0 0 1-1.508.775Z" fill="#000"/><path fill-rule="evenodd" clip-rule="evenodd" d="m105.46 77.433.543.374.543.375.002-.002.006-.009.027-.04c.025-.036.062-.09.112-.158a18.014 18.014 0 0 1 1.938-2.277c.619-.61 1.313-1.183 2.022-1.575.713-.394 1.386-.574 1.99-.487.776.112 1.294.651 1.626 1.625.338.992.428 2.311.377 3.68-.05 1.357-.235 2.702-.409 3.713-.087.504-.171.922-.232 1.214-.031.145-.057.259-.074.335l-.02.087-.005.02-.001.006.637.16.638.158.001-.002.002-.007.006-.026.022-.095a32.874 32.874 0 0 0 .32-1.62c.18-1.045.375-2.454.428-3.893.053-1.425-.031-2.94-.448-4.165-.423-1.243-1.24-2.301-2.682-2.51-.99-.142-1.956.167-2.804.636-.853.471-1.643 1.134-2.309 1.79a19.385 19.385 0 0 0-2.21 2.625l-.033.049-.009.013-.003.004-.001.002ZM106.393 79.113l-.23.626-.23.627h.001l.008.003.038.014c.035.014.088.035.156.064.137.058.333.145.566.264.47.238 1.073.591 1.63 1.058 1.118.938 1.94 2.22 1.388 3.934-.592 1.836-2.124 3.017-3.605 3.753a12.118 12.118 0 0 1-2.548.916 7.26 7.26 0 0 1-.201.043l-.008.002h-.001l.121.656.12.656h.003l.004-.001.016-.003a5.054 5.054 0 0 0 .249-.054 13.458 13.458 0 0 0 2.845-1.023c1.624-.806 3.533-2.208 4.284-4.539.79-2.452-.485-4.254-1.801-5.358-.66-.554-1.358-.96-1.885-1.228a10.38 10.38 0 0 0-.897-.402l-.016-.005-.004-.002h-.002l-.001-.001Z" fill="#000"/><path d="M29.764 75.927v-27.04l-10.25 11.757s2.026 7.736 2.149 12.932c.096 4.084-1.323 7.39-.331 11.085 1.157 2.163 3.472 4.703 3.472 4.703l4.96-13.437Z" fill="#824C41"/><path fill-rule="evenodd" clip-rule="evenodd" d="M30.552 47.31v28.843l-5.464 14.525-.74-.797.494-.455-.493.455-.003-.002-.005-.006-.022-.023-.08-.088a38.49 38.49 0 0 1-1.243-1.45c-.74-.91-1.654-2.12-2.272-3.254l-.037-.068-.02-.075c-.54-1.973-.417-3.824-.193-5.638.048-.387.1-.77.152-1.152.196-1.437.39-2.864.353-4.42-.061-2.528-.597-5.703-1.125-8.27a95.582 95.582 0 0 0-1.014-4.382l-.017-.064-.005-.02-.093-.348 11.827-13.31Zm-5.946 40.836c-.17-.2-.363-.428-.566-.677-.71-.874-1.54-1.977-2.098-2.982-.445-1.684-.35-3.3-.134-5.046.044-.355.093-.717.144-1.086.197-1.449.41-3.009.37-4.683-.064-2.652-.62-5.924-1.152-8.507a96.58 96.58 0 0 0-.963-4.192l9.002-10.13V75.91l-4.603 12.235Z" fill="#000"/><path d="M98.1 75.927v-27.04l10.514 11.757s-2.078 7.736-2.204 12.932c-.1 4.084 1.356 7.39.339 11.085-1.187 2.163-3.561 4.703-3.561 4.703l-5.087-13.437Z" fill="#824C41"/><path fill-rule="evenodd" clip-rule="evenodd" d="M97.575 47.31v28.843l5.464 14.525.74-.797-.493-.455.493.455.002-.002.006-.006.021-.023.079-.088a37.251 37.251 0 0 0 1.243-1.45c.742-.91 1.655-2.12 2.273-3.254l.038-.068.02-.075c.54-1.973.417-3.824.192-5.638-.048-.387-.1-.77-.152-1.152-.196-1.437-.39-2.864-.352-4.42.061-2.528.596-5.703 1.125-8.27a93.673 93.673 0 0 1 .949-4.132l.064-.25.017-.064.006-.02.092-.348-11.827-13.31Zm5.947 40.836c.17-.2.362-.428.565-.677.711-.874 1.54-1.977 2.098-2.982.445-1.684.351-3.3.134-5.046a98.248 98.248 0 0 0-.143-1.086c-.198-1.449-.411-3.009-.371-4.683.064-2.652.621-5.924 1.152-8.507a99.682 99.682 0 0 1 .963-4.192l-9.001-10.13V75.91l4.603 12.235Z" fill="#000"/><path d="M63.627 127.438c-12.088-1.331-36.664-11.496-40.38-26.752-1.866-7.658-.318-12.197 1.602-17.829.557-1.632 1.145-3.357 1.69-5.276V33.38h74.523v44.2c.546 1.92 1.134 3.645 1.691 5.277 1.92 5.632 3.468 10.17 1.602 17.829-3.716 15.256-28.293 25.421-40.38 26.752-.062.007-.1.036-.174.036-.075 0-.113-.029-.174-.036Z" fill="#D89E6D"/><path fill-rule="evenodd" clip-rule="evenodd" d="M26.012 32.591h75.84v44.766c.533 1.864 1.106 3.544 1.654 5.153l.005.012c1.925 5.648 3.525 10.34 1.614 18.185-1.925 7.904-9.205 14.379-17.365 19.017-8.168 4.642-17.395 7.546-23.54 8.231a.948.948 0 0 1-.575 0c-6.145-.685-15.373-3.589-23.54-8.231-8.16-4.638-15.44-11.113-17.366-19.017-1.91-7.845-.311-12.537 1.615-18.185l.004-.013c.549-1.608 1.122-3.288 1.654-5.152V32.59Zm37.607 95.356.002.001-.002-.001Zm.624.001.005-.001h-.003l-.002.001Zm-36.89-94.017v43.612l-.026.09c-.55 1.935-1.143 3.673-1.698 5.303l-.002.005c-1.912 5.607-3.403 9.99-1.585 17.45 1.79 7.348 8.651 13.58 16.725 18.169 8.05 4.575 17.126 7.415 23.065 8.069.038.004.072.01.1.017a.765.765 0 0 1 .1-.017c5.94-.654 15.016-3.494 23.065-8.069 8.074-4.589 14.936-10.821 16.726-18.169 1.817-7.46.326-11.843-1.586-17.45l-.001-.005c-.556-1.63-1.149-3.368-1.699-5.303l-.025-.09V33.93h-73.16Zm36.684 92.744h.002c0 .001 0 .001 0 0h-.002Z" fill="#000"/><path d="M55.298 81.631c-6.753 2.164-10.467.999-14.35-.999-5.926-6.876-1.822-20.851 7.26-21.97 9.453-1.166 11.142 18.641 7.09 22.969Z" fill="#fff"/><path fill-rule="evenodd" clip-rule="evenodd" d="M57.753 76.175c-.264 2.503-.925 4.758-2.076 6.017l-.118.129-.165.054c-3.397 1.115-6.074 1.387-8.417 1.1-2.34-.288-4.295-1.127-6.237-2.151l-.116-.061-.084-.1c-3.11-3.698-3.543-9.222-2.098-13.906 1.445-4.681 4.848-8.769 9.676-9.378 2.611-.33 4.675.845 6.187 2.76 1.494 1.892 2.48 4.533 3.033 7.289.553 2.764.682 5.706.415 8.247Zm-4.489-14.697c-1.295-1.64-2.933-2.524-4.98-2.265-4.122.52-7.216 4.052-8.57 8.444-1.341 4.345-.898 9.29 1.758 12.536 1.84.963 3.6 1.694 5.666 1.947 2.07.254 4.498.034 7.671-.987.79-.964 1.375-2.788 1.62-5.12.253-2.4.132-5.204-.396-7.838-.53-2.643-1.456-5.054-2.769-6.717Z" fill="#000"/><path d="M49.72 82.793c1.626-.097 3.453-.449 5.584-1.135 3.004-3.22 2.843-15.006-1.312-20.358a3.954 3.954 0 0 0-2.053-.294c-7.364.835-9.504 10.576-6.227 17.155.984 1.977 2.361 3.54 4.008 4.632Z" fill="#05A2D9"/><path fill-rule="evenodd" clip-rule="evenodd" d="M53.428 61.74a3.246 3.246 0 0 0-1.547-.181c-3.333.383-5.532 2.796-6.522 6.017-.994 3.234-.723 7.178.835 10.344.896 1.822 2.127 3.263 3.585 4.289 1.454-.11 3.094-.433 5.001-1.042.577-.699 1.055-1.86 1.368-3.378.328-1.593.458-3.498.368-5.482-.178-3.921-1.203-8.009-3.088-10.567Zm-1.7-1.518a4.573 4.573 0 0 1 2.395.35l.158.069.105.137c2.193 2.859 3.285 7.346 3.472 11.468.094 2.074-.04 4.093-.394 5.816-.351 1.702-.935 3.198-1.807 4.145l-.12.129-.166.054c-2.17.707-4.05 1.075-5.74 1.177l-.225.014-.189-.126c-1.747-1.172-3.197-2.845-4.228-4.94-1.711-3.478-2.008-7.777-.914-11.335 1.097-3.57 3.64-6.498 7.653-6.958Z" fill="#000"/><path d="M57.877 73.786c.34 4.615-1.76 8.532-4.69 8.748-2.932.217-5.585-3.349-5.925-7.964-.342-4.614 1.758-8.531 4.69-8.747 2.931-.217 5.584 3.348 5.925 7.963Z" fill="#000"/><path d="M54.47 68.994c0 .798-.706 1.445-1.577 1.445-.87 0-1.577-.647-1.577-1.445 0-.799.706-1.446 1.577-1.446s1.577.647 1.577 1.446ZM72.304 81.618c6.752 2.188 10.466 1.01 14.35-1.01 5.926-6.95 1.822-21.078-7.26-22.209-9.454-1.178-11.142 18.845-7.09 23.22Z" fill="#fff"/><path fill-rule="evenodd" clip-rule="evenodd" d="M69.849 75.988c.263 2.477.925 4.71 2.075 5.955l.118.128.166.054c3.396 1.103 6.074 1.372 8.417 1.088 2.34-.284 4.294-1.116 6.237-2.13l.115-.06.084-.098c3.111-3.66 3.543-9.128 2.098-13.764-1.444-4.634-4.847-8.68-9.676-9.283-2.61-.326-4.674.837-6.186 2.733-1.494 1.873-2.481 4.486-3.033 7.214-.554 2.736-.682 5.648-.415 8.163Zm4.488-14.548c1.295-1.623 2.934-2.497 4.981-2.242 4.122.516 7.216 4.012 8.57 8.359 1.341 4.3.898 9.194-1.758 12.408-1.841.953-3.6 1.676-5.666 1.927-2.07.251-4.499.034-7.671-.977-.79-.955-1.375-2.76-1.62-5.068-.253-2.376-.132-5.151.395-7.758.53-2.616 1.456-5.003 2.77-6.649Z" fill="#000"/><path d="M77.882 82.793c-1.626-.099-3.454-.454-5.585-1.148-3.003-3.26-2.843-15.187 1.313-20.604a3.911 3.911 0 0 1 2.053-.298c7.363.845 9.504 10.704 6.227 17.362-.985 2-2.362 3.583-4.008 4.688Z" fill="#05A2D9"/><path fill-rule="evenodd" clip-rule="evenodd" d="M74.174 61.723a3.28 3.28 0 0 1 1.546-.18c3.334.379 5.533 2.765 6.523 5.95.994 3.198.723 7.097-.835 10.228-.897 1.8-2.128 3.226-3.585 4.24-1.454-.108-3.094-.428-5.001-1.03-.578-.69-1.056-1.84-1.368-3.34-.329-1.575-.458-3.458-.368-5.42.177-3.877 1.203-7.92 3.088-10.448Zm1.7-1.502a4.619 4.619 0 0 0-2.395.346l-.158.069-.105.135c-2.193 2.827-3.286 7.264-3.472 11.34-.094 2.05.04 4.046.394 5.75.35 1.683.935 3.163 1.807 4.098l.12.128.166.054c2.17.698 4.05 1.063 5.74 1.164l.225.013.188-.124c1.748-1.16 3.198-2.813 4.228-4.885 1.712-3.44 2.008-7.69.915-11.207-1.097-3.53-3.64-6.425-7.653-6.88Z" fill="#000"/><path d="M69.716 73.668c-.34 4.615 1.76 8.532 4.69 8.748 2.932.217 5.585-3.349 5.926-7.963.34-4.615-1.76-8.532-4.69-8.749-2.932-.216-5.584 3.35-5.925 7.964Z" fill="#000"/><path d="M73.132 68.862a1.577 1.577 0 1 0 3.153 0 1.577 1.577 0 0 0-3.153 0Z" fill="#fff"/><path d="M30.91 79.113c-3.321 4.453-5.515 8.762-2.845 13.628 1.9 3.462 5.189 4.487 8.704 5.318.67 2.16 1.439 4.212 4.017 5.484 2.81 1.387 5.356.997 7.867.166.682.417 1.317.915 1.965 1.423 1.418 1.111 2.898 2.271 5.065 2.732 2.859.609 7.679-.665 8.118-1.329.565.664 5.259 1.938 8.118 1.329 2.167-.461 3.646-1.621 5.065-2.732.648-.508 1.283-1.006 1.965-1.423 2.51.831 5.057 1.221 7.867-.166 2.578-1.272 3.347-3.324 4.017-5.484 3.515-.831 6.804-1.856 8.704-5.318 2.67-4.866.476-9.175-2.846-13.628-13.751 11.143-30.936 11.17-32.806 11.139v-.004l-.084.002a8.033 8.033 0 0 1-.084-.002v.004c-1.87.031-19.055.004-32.807-11.14Z" fill="#000"/><path d="M81.542 87.13c0 8.491-8.002 15.375-17.873 15.375-9.87 0-17.872-6.884-17.872-15.376 0-8.491 8.002-15.375 17.872-15.375 9.871 0 17.873 6.884 17.873 15.375Z" fill="#D89E6D"/><path fill-rule="evenodd" clip-rule="evenodd" d="M63.67 101.168c9.311 0 16.523-6.457 16.523-14.039 0-7.581-7.212-14.038-16.524-14.038-9.311 0-16.523 6.457-16.523 14.038 0 7.582 7.212 14.039 16.523 14.039Zm0 1.337c9.87 0 17.872-6.884 17.872-15.376 0-8.491-8.002-15.375-17.873-15.375-9.87 0-17.872 6.884-17.872 15.375 0 8.492 8.002 15.376 17.872 15.376Z" fill="#000"/><path d="M34.944 57.298c7.051-7.548 10.577-8.219 20.315 0 0-7.38-7.052-14.515-12.089-13.586-6.103 1.126-9.234 7.715-8.226 13.586ZM92.658 57.298c-7.052-7.548-10.577-8.219-20.315 0 0-7.38 7.051-14.515 12.088-13.586 6.104 1.126 9.234 7.715 8.227 13.586Z" fill="#000"/><path d="M63.716.789C38.66.985.032 42.607 20.604 67.022c9.189-20.216 23.305-24.458 43.197-24.47 19.892.012 34.008 4.254 43.196 24.47C127.569 42.607 88.94.985 63.886.788h-.085l-.085.001Z" fill="#C2352D"/><path fill-rule="evenodd" clip-rule="evenodd" d="M63.888 0h.004c6.448.05 13.7 2.76 20.599 7.122 6.908 4.367 13.517 10.423 18.686 17.246 10.295 13.591 15.063 30.537 4.435 43.157l-.684.812-.44-.967c-4.554-10.026-10.297-16.028-17.315-19.546-7.041-3.529-15.438-4.594-25.372-4.6-9.935.006-18.331 1.071-25.372 4.6-7.018 3.518-12.761 9.52-17.316 19.546l-.439.967-.684-.813C9.362 54.906 14.13 37.96 24.425 24.369 29.593 17.545 36.203 11.49 43.11 7.122c6.899-4.36 14.15-7.071 20.6-7.121H63.797l.09-.001Zm-.118 1.343H63.72c-6.108.049-13.113 2.63-19.892 6.915-6.77 4.28-13.26 10.225-18.333 16.922-9.953 13.139-14.27 28.871-5.146 40.652 4.585-9.668 10.374-15.646 17.48-19.208 7.321-3.67 15.968-4.737 25.972-4.743h.001c10.004.006 18.652 1.073 25.972 4.743 7.107 3.561 12.896 9.54 17.481 19.208 9.124-11.78 4.807-27.513-5.146-40.652-5.073-6.697-11.563-12.643-18.334-16.923-6.778-4.284-13.782-6.865-19.89-6.914h-.114Z" fill="#000"/><path d="M81.805 22.604c0 8.129-8.12 14.718-18.136 14.718s-18.135-6.59-18.135-14.718c0-8.13 8.12-14.719 18.135-14.719 10.016 0 18.136 6.59 18.136 14.719Z" fill="#fff"/><path fill-rule="evenodd" clip-rule="evenodd" d="M63.67 35.982c9.551 0 16.795-6.238 16.795-13.378S73.221 9.225 63.67 9.225c-9.551 0-16.795 6.239-16.795 13.379s7.244 13.378 16.795 13.378Zm0 1.34c10.015 0 18.135-6.59 18.135-14.718 0-8.13-8.12-14.719-18.136-14.719s-18.135 6.59-18.135 14.719 8.12 14.718 18.135 14.718Z" fill="#000"/><path d="m55.008 29.437-4.48-2.94 7.616-13.618 5.525 4.643 5.825-4.643 7.317 13.618-4.63 2.94L68.15 18.76l-4.48 4.798-4.78-4.797-3.882 10.677Z" fill="#C2352D"/><path fill-rule="evenodd" clip-rule="evenodd" d="m57.997 11.828 5.686 4.822 5.98-4.813 7.937 14.91-5.809 3.724-3.915-10.466-4.189 4.529-4.494-4.554-3.785 10.509-5.669-3.756 8.258-14.905Zm11.25 2.062-5.587 4.495-5.288-4.486-6.868 12.397 3.23 2.14 3.925-10.9 4.997 5.064 4.708-5.089 4.093 10.942 3.386-2.17-6.596-12.393Z" fill="#000"/><path d="M63.8 32.066c-27.388 0-55.752 19.332-37.949 26.283 7.564-9.565 15.463-15.482 37.95-15.497 22.486.015 30.385 5.932 37.949 15.497 17.803-6.951-10.56-26.283-37.95-26.283Z" fill="#C2352D"/><path fill-rule="evenodd" clip-rule="evenodd" d="M27.378 42.132c8.4-5.747 22.468-10.592 36.291-10.592 13.824 0 27.891 4.845 36.291 10.592 2.105 1.44 3.87 2.947 5.191 4.465 1.317 1.513 2.22 3.07 2.543 4.606.329 1.561.05 3.073-.943 4.421-.977 1.326-2.608 2.444-4.9 3.334l-.462.18-.308-.387c-3.75-4.716-7.537-8.475-13.132-11.075-5.607-2.604-13.093-4.073-24.28-4.08-11.187.007-18.672 1.476-24.28 4.08-5.595 2.6-9.382 6.359-13.132 11.075l-.307.387-.463-.18c-2.291-.89-3.922-2.008-4.9-3.334-.992-1.348-1.27-2.86-.943-4.42.324-1.537 1.227-3.094 2.544-4.607 1.32-1.518 3.086-3.025 5.19-4.465Zm-1.86 15.401c3.716-4.616 7.602-8.414 13.304-11.063 5.852-2.718 13.554-4.198 24.847-4.206 11.293.008 18.996 1.488 24.848 4.206 5.702 2.65 9.587 6.447 13.303 11.063 1.897-.797 3.133-1.723 3.849-2.695.756-1.026.968-2.15.713-3.363-.26-1.237-1.014-2.593-2.245-4.007-1.226-1.41-2.898-2.845-4.937-4.24-8.173-5.59-21.974-10.356-35.53-10.356-13.557 0-27.358 4.765-35.531 10.357-2.04 1.394-3.71 2.83-4.938 4.239-1.23 1.414-1.984 2.77-2.245 4.007-.255 1.213-.043 2.337.713 3.363.717.972 1.953 1.898 3.85 2.695Z" fill="#000"/></svg>