<svg fill="none" xmlns="http://www.w3.org/2000/svg" viewBox="0 0 16 16"><path fill="#fff" fill-opacity=".67" d="M0 1h1v9H0zM0 11h1v4H0zM10 1h1v4h-1zM10 6h1v4h-1zM8 12h1v4H8zM9 10h1v2H9zM1 0h8v1H1zM11 0h4v1h-4zM11 6h4v1h-4zM4 13h3v1H4z"/><path fill="#000" fill-opacity=".9" d="M4 12h3v1H4zM1 15h6v1H1zM9 15h6v1H9zM11 5h4v1h-4z"/><path fill="#fff" fill-opacity=".67" d="M2 12h2v1H2z"/><path fill="#000" fill-opacity=".9" d="M2 11h2v1H2z"/><path fill="#fff" fill-opacity=".67" d="M1 11h1v1H1z"/><path fill="#000" fill-opacity=".9" d="M0 10h2v1H0zM9 0h1v10H9zM8 10h1v2H8zM7 12h1v3H7zM15 1h1v4h-1zM15 6h1v9h-1zM14 14h1v1h-1zM11 4h1v1h-1z"/></svg>