<svg fill="none" xmlns="http://www.w3.org/2000/svg" viewBox="0 0 325 325"><path d="M0 0h325v154.475H0V0Z" fill="#88D800"/><path fill-rule="evenodd" clip-rule="evenodd" d="M314 11.034H11v132.407h303V11.034ZM0 0v154.475h325V0H0Z" fill="#000"/><path d="M61.378 25.579h-50.31v8.526H42.26V143.44h19.118V25.579Z" fill="#0D9300"/><path d="M21 153.472h284V325H21V153.472Z" fill="#88D800"/><path d="M32.01 164.442h261.98v144.602h.01V325h11V153.472H21V325h11v-15.956h.01V164.442Z" fill="#000"/><path d="M251.548 25.077h62.384v9.028h-62.384v-9.028Z" fill="#0D9300"/><path d="M253.56 25.077H121.749v118.364h10.062V34.105h21.13V143.44H253.56V25.077ZM253.56 44.136h10.062v10.03H253.56v-10.03ZM253.56 84.26h10.062v10.03H253.56V84.26ZM253.56 124.383h10.062v10.031H253.56v-10.031ZM253.56 64.198h10.062v10.03H253.56v-10.03ZM253.56 104.321h10.062v10.031H253.56v-10.031ZM263.622 34.105h10.062v10.03h-10.062v-10.03ZM263.622 74.228h10.062V84.26h-10.062V74.23ZM263.622 114.352h10.062v10.031h-10.062v-10.031ZM263.622 54.167h10.062v10.03h-10.062v-10.03ZM263.622 94.29h10.062v10.031h-10.062V94.29ZM263.622 134.414h10.062v10.03h-10.062v-10.03ZM273.684 44.136h10.062v10.03h-10.062v-10.03ZM273.684 84.26h10.062v10.03h-10.062V84.26ZM273.684 124.383h10.062v10.031h-10.062v-10.031ZM273.684 64.198h10.062v10.03h-10.062v-10.03ZM273.684 104.321h10.062v10.031h-10.062v-10.031ZM283.746 34.105h10.062v10.03h-10.062v-10.03ZM283.746 74.228h10.062V84.26h-10.062V74.23Z" fill="#0D9300"/><path d="M283.746 114.352h10.062v10.031h-10.062v-10.031ZM283.746 54.167h10.062v10.03h-10.062v-10.03ZM283.746 94.29h10.062v10.031h-10.062V94.29ZM283.746 134.414h10.062v10.03h-10.062v-10.03ZM242.498 174.537h10.062v10.031h-10.062v-10.031ZM242.498 214.66h10.062v10.031h-10.062V214.66ZM242.498 274.846h10.062v10.031h-10.062v-10.031ZM242.498 254.784h10.062v10.031h-10.062v-10.031ZM242.498 194.599h10.062v10.031h-10.062v-10.031ZM242.498 234.722h10.062v10.031h-10.062v-10.031ZM242.498 294.907h10.062v10.031h-10.062v-10.031ZM242.498 314.969h10.062V325h-10.062v-10.031ZM252.56 164.506h10.062v10.031H252.56v-10.031ZM252.56 204.63h10.062v10.031H252.56V204.63ZM252.56 264.815h10.062v10.031H252.56v-10.031ZM252.56 244.753h10.062v10.031H252.56v-10.031ZM252.56 304.938h10.062v10.031H252.56v-10.031ZM252.56 184.568h10.062v10.031H252.56v-10.031ZM252.56 224.691h10.062v10.031H252.56v-10.031ZM252.56 284.877h10.062v10.03H252.56v-10.03Z" fill="#0D9300"/><path d="M252.56 264.815h10.062v10.031H252.56v-10.031ZM262.622 174.537h10.062v10.031h-10.062v-10.031ZM262.622 214.66h10.062v10.031h-10.062V214.66ZM262.622 274.846h10.062v10.031h-10.062v-10.031ZM262.622 254.784h10.062v10.031h-10.062v-10.031ZM262.622 194.599h10.062v10.031h-10.062v-10.031ZM262.622 234.722h10.062v10.031h-10.062v-10.031ZM262.622 294.907h10.062v10.031h-10.062v-10.031ZM262.622 314.969h10.062V325h-10.062v-10.031ZM163 164.506h80V325h-80V164.506ZM133 164.506h10V325h-10V164.506ZM61 164.506h22V325H61V164.506Z" fill="#0D9300"/></svg>